<svg xmlns="http://www.w3.org/2000/svg" width="24" height="24" viewBox="0 0 24 24"><defs><style>.a{fill:#fff;}.b{fill:none;}</style></defs><g transform="translate(-277 -230)"><g transform="translate(269.769 231.637)"><path class="a" d="M313.468,188.68h-13.6a1.018,1.018,0,1,1,0-2h13.6a1.018,1.018,0,1,1,0,2Zm0,0" transform="translate(-287.437 -177.315)"/><path class="a" d="M14.8,2H1.2A1.114,1.114,0,0,1,0,1,1.114,1.114,0,0,1,1.2,0H14.8A1.114,1.114,0,0,1,16,1,1.114,1.114,0,0,1,14.8,2Zm0,0" transform="translate(20.231 2.363) rotate(90)"/></g><rect class="b" width="24" height="24" transform="translate(277 230)"/></g></svg>