<svg xmlns="http://www.w3.org/2000/svg" width="150" height="120" viewBox="0 0 150 120"><defs><style>.a{fill:none;}.b{fill:#2c4c9a;}</style></defs><g transform="translate(-1004 -2600)"><rect class="a" width="150" height="120" transform="translate(1004 2600)"/><g transform="translate(1210.38 2598.5)"><path class="b" d="M-146.76,62.5h-4.54a2.68,2.68,0,0,0-2.68,2.68,2.678,2.678,0,0,0,2.68,2.67h4.54a2.676,2.676,0,0,0,2.67-2.67A2.678,2.678,0,0,0-146.76,62.5Zm18.15,0h-4.54a2.68,2.68,0,0,0-2.68,2.68,2.678,2.678,0,0,0,2.68,2.67h4.54a2.676,2.676,0,0,0,2.67-2.67A2.678,2.678,0,0,0-128.61,62.5Zm18.15,0H-115a2.68,2.68,0,0,0-2.68,2.68A2.678,2.678,0,0,0-115,67.85h4.54a2.671,2.671,0,0,0,1.89-.78,2.606,2.606,0,0,0,.78-1.89A2.678,2.678,0,0,0-110.46,62.5Zm-36.3,12.71h-4.54a2.678,2.678,0,0,0-2.68,2.67,2.68,2.68,0,0,0,2.68,2.68h4.54a2.687,2.687,0,0,0,2.68-2.68A2.684,2.684,0,0,0-146.76,75.21Zm18.15,0h-4.54a2.691,2.691,0,0,0-2.68,2.67,2.693,2.693,0,0,0,2.68,2.68h4.54a2.68,2.68,0,0,0,2.68-2.68A2.678,2.678,0,0,0-128.61,75.21Zm18.15,0H-115a2.676,2.676,0,0,0-2.67,2.67A2.678,2.678,0,0,0-115,80.56h4.54a2.68,2.68,0,0,0,2.68-2.68A2.678,2.678,0,0,0-110.46,75.21Zm0-12.71H-115a2.68,2.68,0,0,0-2.68,2.68A2.678,2.678,0,0,0-115,67.85h4.54a2.671,2.671,0,0,0,1.89-.78,2.606,2.606,0,0,0,.78-1.89A2.678,2.678,0,0,0-110.46,62.5Zm0,12.71H-115a2.676,2.676,0,0,0-2.67,2.67A2.678,2.678,0,0,0-115,80.56h4.54a2.68,2.68,0,0,0,2.68-2.68A2.678,2.678,0,0,0-110.46,75.21Zm-18.15,0h-4.54a2.691,2.691,0,0,0-2.68,2.67,2.693,2.693,0,0,0,2.68,2.68h4.54a2.68,2.68,0,0,0,2.68-2.68A2.678,2.678,0,0,0-128.61,75.21Zm0-12.71h-4.54a2.68,2.68,0,0,0-2.68,2.68,2.678,2.678,0,0,0,2.68,2.67h4.54a2.676,2.676,0,0,0,2.67-2.67A2.678,2.678,0,0,0-128.61,62.5Zm-18.15,0h-4.54a2.68,2.68,0,0,0-2.68,2.68,2.678,2.678,0,0,0,2.68,2.67h4.54a2.676,2.676,0,0,0,2.67-2.67A2.678,2.678,0,0,0-146.76,62.5Zm0,12.71h-4.54a2.678,2.678,0,0,0-2.68,2.67,2.68,2.68,0,0,0,2.68,2.68h4.54a2.687,2.687,0,0,0,2.68-2.68A2.684,2.684,0,0,0-146.76,75.21Zm0,0h-4.54a2.678,2.678,0,0,0-2.68,2.67,2.68,2.68,0,0,0,2.68,2.68h4.54a2.687,2.687,0,0,0,2.68-2.68A2.684,2.684,0,0,0-146.76,75.21Zm0-12.71h-4.54a2.68,2.68,0,0,0-2.68,2.68,2.678,2.678,0,0,0,2.68,2.67h4.54a2.676,2.676,0,0,0,2.67-2.67A2.678,2.678,0,0,0-146.76,62.5Zm18.15,0h-4.54a2.68,2.68,0,0,0-2.68,2.68,2.678,2.678,0,0,0,2.68,2.67h4.54a2.676,2.676,0,0,0,2.67-2.67A2.678,2.678,0,0,0-128.61,62.5Zm0,12.71h-4.54a2.691,2.691,0,0,0-2.68,2.67,2.693,2.693,0,0,0,2.68,2.68h4.54a2.68,2.68,0,0,0,2.68-2.68A2.678,2.678,0,0,0-128.61,75.21Zm18.15,0H-115a2.676,2.676,0,0,0-2.67,2.67A2.678,2.678,0,0,0-115,80.56h4.54a2.68,2.68,0,0,0,2.68-2.68A2.678,2.678,0,0,0-110.46,75.21Zm0-12.71H-115a2.68,2.68,0,0,0-2.68,2.68A2.678,2.678,0,0,0-115,67.85h4.54a2.671,2.671,0,0,0,1.89-.78,2.606,2.606,0,0,0,.78-1.89A2.678,2.678,0,0,0-110.46,62.5Zm0,0H-115a2.68,2.68,0,0,0-2.68,2.68A2.678,2.678,0,0,0-115,67.85h4.54a2.671,2.671,0,0,0,1.89-.78,2.606,2.606,0,0,0,.78-1.89A2.678,2.678,0,0,0-110.46,62.5Zm0,12.71H-115a2.676,2.676,0,0,0-2.67,2.67A2.678,2.678,0,0,0-115,80.56h4.54a2.68,2.68,0,0,0,2.68-2.68A2.678,2.678,0,0,0-110.46,75.21Zm-18.15,0h-4.54a2.691,2.691,0,0,0-2.68,2.67,2.693,2.693,0,0,0,2.68,2.68h4.54a2.68,2.68,0,0,0,2.68-2.68A2.678,2.678,0,0,0-128.61,75.21Zm0-12.71h-4.54a2.68,2.68,0,0,0-2.68,2.68,2.678,2.678,0,0,0,2.68,2.67h4.54a2.676,2.676,0,0,0,2.67-2.67A2.678,2.678,0,0,0-128.61,62.5Zm-18.15,0h-4.54a2.68,2.68,0,0,0-2.68,2.68,2.678,2.678,0,0,0,2.68,2.67h4.54a2.676,2.676,0,0,0,2.67-2.67A2.678,2.678,0,0,0-146.76,62.5Zm0,12.71h-4.54a2.678,2.678,0,0,0-2.68,2.67,2.68,2.68,0,0,0,2.68,2.68h4.54a2.687,2.687,0,0,0,2.68-2.68A2.684,2.684,0,0,0-146.76,75.21Zm0,0h-4.54a2.678,2.678,0,0,0-2.68,2.67,2.68,2.68,0,0,0,2.68,2.68h4.54a2.687,2.687,0,0,0,2.68-2.68A2.684,2.684,0,0,0-146.76,75.21Zm0-12.71h-4.54a2.68,2.68,0,0,0-2.68,2.68,2.678,2.678,0,0,0,2.68,2.67h4.54a2.676,2.676,0,0,0,2.67-2.67A2.678,2.678,0,0,0-146.76,62.5Zm18.15,12.71h-4.54a2.691,2.691,0,0,0-2.68,2.67,2.693,2.693,0,0,0,2.68,2.68h4.54a2.68,2.68,0,0,0,2.68-2.68A2.678,2.678,0,0,0-128.61,75.21Zm0-12.71h-4.54a2.68,2.68,0,0,0-2.68,2.68,2.678,2.678,0,0,0,2.68,2.67h4.54a2.676,2.676,0,0,0,2.67-2.67A2.678,2.678,0,0,0-128.61,62.5Zm18.15,12.71H-115a2.676,2.676,0,0,0-2.67,2.67A2.678,2.678,0,0,0-115,80.56h4.54a2.68,2.68,0,0,0,2.68-2.68A2.678,2.678,0,0,0-110.46,75.21Zm0-12.71H-115a2.68,2.68,0,0,0-2.68,2.68A2.678,2.678,0,0,0-115,67.85h4.54a2.671,2.671,0,0,0,1.89-.78,2.606,2.606,0,0,0,.78-1.89A2.678,2.678,0,0,0-110.46,62.5Zm0,0H-115a2.68,2.68,0,0,0-2.68,2.68A2.678,2.678,0,0,0-115,67.85h4.54a2.671,2.671,0,0,0,1.89-.78,2.606,2.606,0,0,0,.78-1.89A2.678,2.678,0,0,0-110.46,62.5Zm0,12.71H-115a2.676,2.676,0,0,0-2.67,2.67A2.678,2.678,0,0,0-115,80.56h4.54a2.68,2.68,0,0,0,2.68-2.68A2.678,2.678,0,0,0-110.46,75.21ZM-128.61,62.5h-4.54a2.68,2.68,0,0,0-2.68,2.68,2.678,2.678,0,0,0,2.68,2.67h4.54a2.676,2.676,0,0,0,2.67-2.67A2.678,2.678,0,0,0-128.61,62.5Zm0,12.71h-4.54a2.691,2.691,0,0,0-2.68,2.67,2.693,2.693,0,0,0,2.68,2.68h4.54a2.68,2.68,0,0,0,2.68-2.68A2.678,2.678,0,0,0-128.61,75.21ZM-146.76,62.5h-4.54a2.68,2.68,0,0,0-2.68,2.68,2.678,2.678,0,0,0,2.68,2.67h4.54a2.676,2.676,0,0,0,2.67-2.67A2.678,2.678,0,0,0-146.76,62.5Zm0,12.71h-4.54a2.678,2.678,0,0,0-2.68,2.67,2.68,2.68,0,0,0,2.68,2.68h4.54a2.687,2.687,0,0,0,2.68-2.68A2.684,2.684,0,0,0-146.76,75.21Zm0,0h-4.54a2.678,2.678,0,0,0-2.68,2.67,2.68,2.68,0,0,0,2.68,2.68h4.54a2.687,2.687,0,0,0,2.68-2.68A2.684,2.684,0,0,0-146.76,75.21Zm0-12.71h-4.54a2.68,2.68,0,0,0-2.68,2.68,2.678,2.678,0,0,0,2.68,2.67h4.54a2.676,2.676,0,0,0,2.67-2.67A2.678,2.678,0,0,0-146.76,62.5Zm18.15,12.71h-4.54a2.691,2.691,0,0,0-2.68,2.67,2.693,2.693,0,0,0,2.68,2.68h4.54a2.68,2.68,0,0,0,2.68-2.68A2.678,2.678,0,0,0-128.61,75.21Zm0-12.71h-4.54a2.68,2.68,0,0,0-2.68,2.68,2.678,2.678,0,0,0,2.68,2.67h4.54a2.676,2.676,0,0,0,2.67-2.67A2.678,2.678,0,0,0-128.61,62.5Zm18.15,12.71H-115a2.676,2.676,0,0,0-2.67,2.67A2.678,2.678,0,0,0-115,80.56h4.54a2.68,2.68,0,0,0,2.68-2.68A2.678,2.678,0,0,0-110.46,75.21Zm0-12.71H-115a2.68,2.68,0,0,0-2.68,2.68A2.678,2.678,0,0,0-115,67.85h4.54a2.671,2.671,0,0,0,1.89-.78,2.606,2.606,0,0,0,.78-1.89A2.678,2.678,0,0,0-110.46,62.5Zm0,0H-115a2.68,2.68,0,0,0-2.68,2.68A2.678,2.678,0,0,0-115,67.85h4.54a2.671,2.671,0,0,0,1.89-.78,2.606,2.606,0,0,0,.78-1.89A2.678,2.678,0,0,0-110.46,62.5Zm0,12.71H-115a2.676,2.676,0,0,0-2.67,2.67A2.678,2.678,0,0,0-115,80.56h4.54a2.68,2.68,0,0,0,2.68-2.68A2.678,2.678,0,0,0-110.46,75.21ZM-128.61,62.5h-4.54a2.68,2.68,0,0,0-2.68,2.68,2.678,2.678,0,0,0,2.68,2.67h4.54a2.676,2.676,0,0,0,2.67-2.67A2.678,2.678,0,0,0-128.61,62.5Zm0,12.71h-4.54a2.691,2.691,0,0,0-2.68,2.67,2.693,2.693,0,0,0,2.68,2.68h4.54a2.68,2.68,0,0,0,2.68-2.68A2.678,2.678,0,0,0-128.61,75.21ZM-146.76,62.5h-4.54a2.68,2.68,0,0,0-2.68,2.68,2.678,2.678,0,0,0,2.68,2.67h4.54a2.676,2.676,0,0,0,2.67-2.67A2.678,2.678,0,0,0-146.76,62.5Zm0,12.71h-4.54a2.678,2.678,0,0,0-2.68,2.67,2.68,2.68,0,0,0,2.68,2.68h4.54a2.687,2.687,0,0,0,2.68-2.68A2.684,2.684,0,0,0-146.76,75.21Zm0,0h-4.54a2.678,2.678,0,0,0-2.68,2.67,2.68,2.68,0,0,0,2.68,2.68h4.54a2.687,2.687,0,0,0,2.68-2.68A2.684,2.684,0,0,0-146.76,75.21Zm0-12.71h-4.54a2.68,2.68,0,0,0-2.68,2.68,2.678,2.678,0,0,0,2.68,2.67h4.54a2.676,2.676,0,0,0,2.67-2.67A2.678,2.678,0,0,0-146.76,62.5Zm18.15,12.71h-4.54a2.691,2.691,0,0,0-2.68,2.67,2.693,2.693,0,0,0,2.68,2.68h4.54a2.68,2.68,0,0,0,2.68-2.68A2.678,2.678,0,0,0-128.61,75.21Zm0-12.71h-4.54a2.68,2.68,0,0,0-2.68,2.68,2.678,2.678,0,0,0,2.68,2.67h4.54a2.676,2.676,0,0,0,2.67-2.67A2.678,2.678,0,0,0-128.61,62.5Zm18.15,12.71H-115a2.676,2.676,0,0,0-2.67,2.67A2.678,2.678,0,0,0-115,80.56h4.54a2.68,2.68,0,0,0,2.68-2.68A2.678,2.678,0,0,0-110.46,75.21Zm0-12.71H-115a2.68,2.68,0,0,0-2.68,2.68A2.678,2.678,0,0,0-115,67.85h4.54a2.671,2.671,0,0,0,1.89-.78,2.606,2.606,0,0,0,.78-1.89A2.678,2.678,0,0,0-110.46,62.5ZM-115,67.85h4.54a2.671,2.671,0,0,0,1.89-.78,2.606,2.606,0,0,0,.78-1.89,2.678,2.678,0,0,0-2.67-2.68H-115a2.68,2.68,0,0,0-2.68,2.68A2.678,2.678,0,0,0-115,67.85Zm4.54,7.36H-115a2.676,2.676,0,0,0-2.67,2.67A2.678,2.678,0,0,0-115,80.56h4.54a2.68,2.68,0,0,0,2.68-2.68A2.678,2.678,0,0,0-110.46,75.21Zm-22.69-7.36h4.54a2.676,2.676,0,0,0,2.67-2.67,2.678,2.678,0,0,0-2.67-2.68h-4.54a2.68,2.68,0,0,0-2.68,2.68A2.678,2.678,0,0,0-133.15,67.85Zm4.54,7.36h-4.54a2.691,2.691,0,0,0-2.68,2.67,2.693,2.693,0,0,0,2.68,2.68h4.54a2.68,2.68,0,0,0,2.68-2.68A2.678,2.678,0,0,0-128.61,75.21Zm-22.69-7.36h4.54a2.676,2.676,0,0,0,2.67-2.67,2.678,2.678,0,0,0-2.67-2.68h-4.54a2.68,2.68,0,0,0-2.68,2.68A2.678,2.678,0,0,0-151.3,67.85Zm4.54,7.36h-4.54a2.678,2.678,0,0,0-2.68,2.67,2.68,2.68,0,0,0,2.68,2.68h4.54a2.687,2.687,0,0,0,2.68-2.68A2.684,2.684,0,0,0-146.76,75.21Zm47.79-48.99h-8.22V21.69a2.189,2.189,0,0,0-2.19-2.19,2.189,2.189,0,0,0-2.19,2.19v4.53h-38.62V21.69a2.189,2.189,0,0,0-2.19-2.19,2.2,2.2,0,0,0-2.19,2.18v4.53h-8.22A10.627,10.627,0,0,0-173.38,36.8V93.91a10.627,10.627,0,0,0,10.59,10.59h63.83A10.612,10.612,0,0,0-88.38,93.91V36.8A10.612,10.612,0,0,0-98.97,26.22Zm6.22,67.69a6.229,6.229,0,0,1-6.21,6.21h-63.83A6.222,6.222,0,0,1-169,93.91V48.06h76.25Zm0-50.22H-169V36.8a6.229,6.229,0,0,1,6.21-6.21h8.22v3.19a2.2,2.2,0,0,0,2.19,2.19,2.189,2.189,0,0,0,2.19-2.19V30.59h38.62v3.19a2.189,2.189,0,0,0,2.19,2.19,2.189,2.189,0,0,0,2.19-2.19V30.59h8.22a6.237,6.237,0,0,1,6.22,6.21ZM-115,67.85h4.54a2.671,2.671,0,0,0,1.89-.78,2.606,2.606,0,0,0,.78-1.89,2.678,2.678,0,0,0-2.67-2.68H-115a2.68,2.68,0,0,0-2.68,2.68A2.678,2.678,0,0,0-115,67.85Zm4.54,7.36H-115a2.676,2.676,0,0,0-2.67,2.67A2.678,2.678,0,0,0-115,80.56h4.54a2.68,2.68,0,0,0,2.68-2.68A2.678,2.678,0,0,0-110.46,75.21Zm-22.69-7.36h4.54a2.676,2.676,0,0,0,2.67-2.67,2.678,2.678,0,0,0-2.67-2.68h-4.54a2.68,2.68,0,0,0-2.68,2.68A2.678,2.678,0,0,0-133.15,67.85Zm0,12.71h4.54a2.68,2.68,0,0,0,2.68-2.68,2.678,2.678,0,0,0-2.68-2.67h-4.54a2.691,2.691,0,0,0-2.68,2.67A2.693,2.693,0,0,0-133.15,80.56ZM-151.3,67.85h4.54a2.676,2.676,0,0,0,2.67-2.67,2.678,2.678,0,0,0-2.67-2.68h-4.54a2.68,2.68,0,0,0-2.68,2.68A2.678,2.678,0,0,0-151.3,67.85Zm0,12.71h4.54a2.687,2.687,0,0,0,2.68-2.68,2.684,2.684,0,0,0-2.68-2.67h-4.54a2.678,2.678,0,0,0-2.68,2.67A2.68,2.68,0,0,0-151.3,80.56Zm4.54-5.35h-4.54a2.678,2.678,0,0,0-2.68,2.67,2.68,2.68,0,0,0,2.68,2.68h4.54a2.687,2.687,0,0,0,2.68-2.68A2.684,2.684,0,0,0-146.76,75.21Zm0-12.71h-4.54a2.68,2.68,0,0,0-2.68,2.68,2.678,2.678,0,0,0,2.68,2.67h4.54a2.676,2.676,0,0,0,2.67-2.67A2.678,2.678,0,0,0-146.76,62.5Zm18.15,12.71h-4.54a2.691,2.691,0,0,0-2.68,2.67,2.693,2.693,0,0,0,2.68,2.68h4.54a2.68,2.68,0,0,0,2.68-2.68A2.678,2.678,0,0,0-128.61,75.21Zm0-12.71h-4.54a2.68,2.68,0,0,0-2.68,2.68,2.678,2.678,0,0,0,2.68,2.67h4.54a2.676,2.676,0,0,0,2.67-2.67A2.678,2.678,0,0,0-128.61,62.5Zm18.15,12.71H-115a2.676,2.676,0,0,0-2.67,2.67A2.678,2.678,0,0,0-115,80.56h4.54a2.68,2.68,0,0,0,2.68-2.68A2.678,2.678,0,0,0-110.46,75.21Zm0-12.71H-115a2.68,2.68,0,0,0-2.68,2.68A2.678,2.678,0,0,0-115,67.85h4.54a2.671,2.671,0,0,0,1.89-.78,2.606,2.606,0,0,0,.78-1.89A2.678,2.678,0,0,0-110.46,62.5Zm0,0H-115a2.68,2.68,0,0,0-2.68,2.68A2.678,2.678,0,0,0-115,67.85h4.54a2.671,2.671,0,0,0,1.89-.78,2.606,2.606,0,0,0,.78-1.89A2.678,2.678,0,0,0-110.46,62.5Zm0,12.71H-115a2.676,2.676,0,0,0-2.67,2.67A2.678,2.678,0,0,0-115,80.56h4.54a2.68,2.68,0,0,0,2.68-2.68A2.678,2.678,0,0,0-110.46,75.21ZM-128.61,62.5h-4.54a2.68,2.68,0,0,0-2.68,2.68,2.678,2.678,0,0,0,2.68,2.67h4.54a2.676,2.676,0,0,0,2.67-2.67A2.678,2.678,0,0,0-128.61,62.5Zm0,12.71h-4.54a2.691,2.691,0,0,0-2.68,2.67,2.693,2.693,0,0,0,2.68,2.68h4.54a2.68,2.68,0,0,0,2.68-2.68A2.678,2.678,0,0,0-128.61,75.21ZM-146.76,62.5h-4.54a2.68,2.68,0,0,0-2.68,2.68,2.678,2.678,0,0,0,2.68,2.67h4.54a2.676,2.676,0,0,0,2.67-2.67A2.678,2.678,0,0,0-146.76,62.5Zm0,12.71h-4.54a2.678,2.678,0,0,0-2.68,2.67,2.68,2.68,0,0,0,2.68,2.68h4.54a2.687,2.687,0,0,0,2.68-2.68A2.684,2.684,0,0,0-146.76,75.21Zm0,0h-4.54a2.678,2.678,0,0,0-2.68,2.67,2.68,2.68,0,0,0,2.68,2.68h4.54a2.687,2.687,0,0,0,2.68-2.68A2.684,2.684,0,0,0-146.76,75.21Zm0-12.71h-4.54a2.68,2.68,0,0,0-2.68,2.68,2.678,2.678,0,0,0,2.68,2.67h4.54a2.676,2.676,0,0,0,2.67-2.67A2.678,2.678,0,0,0-146.76,62.5Zm18.15,12.71h-4.54a2.691,2.691,0,0,0-2.68,2.67,2.693,2.693,0,0,0,2.68,2.68h4.54a2.68,2.68,0,0,0,2.68-2.68A2.678,2.678,0,0,0-128.61,75.21Zm0-12.71h-4.54a2.68,2.68,0,0,0-2.68,2.68,2.678,2.678,0,0,0,2.68,2.67h4.54a2.676,2.676,0,0,0,2.67-2.67A2.678,2.678,0,0,0-128.61,62.5Zm18.15,12.71H-115a2.676,2.676,0,0,0-2.67,2.67A2.678,2.678,0,0,0-115,80.56h4.54a2.68,2.68,0,0,0,2.68-2.68A2.678,2.678,0,0,0-110.46,75.21Zm0-12.71H-115a2.68,2.68,0,0,0-2.68,2.68A2.678,2.678,0,0,0-115,67.85h4.54a2.671,2.671,0,0,0,1.89-.78,2.606,2.606,0,0,0,.78-1.89A2.678,2.678,0,0,0-110.46,62.5Zm0,0H-115a2.68,2.68,0,0,0-2.68,2.68A2.678,2.678,0,0,0-115,67.85h4.54a2.671,2.671,0,0,0,1.89-.78,2.606,2.606,0,0,0,.78-1.89A2.678,2.678,0,0,0-110.46,62.5Zm0,12.71H-115a2.676,2.676,0,0,0-2.67,2.67A2.678,2.678,0,0,0-115,80.56h4.54a2.68,2.68,0,0,0,2.68-2.68A2.678,2.678,0,0,0-110.46,75.21ZM-128.61,62.5h-4.54a2.68,2.68,0,0,0-2.68,2.68,2.678,2.678,0,0,0,2.68,2.67h4.54a2.676,2.676,0,0,0,2.67-2.67A2.678,2.678,0,0,0-128.61,62.5Zm0,12.71h-4.54a2.691,2.691,0,0,0-2.68,2.67,2.693,2.693,0,0,0,2.68,2.68h4.54a2.68,2.68,0,0,0,2.68-2.68A2.678,2.678,0,0,0-128.61,75.21ZM-146.76,62.5h-4.54a2.68,2.68,0,0,0-2.68,2.68,2.678,2.678,0,0,0,2.68,2.67h4.54a2.676,2.676,0,0,0,2.67-2.67A2.678,2.678,0,0,0-146.76,62.5Zm0,12.71h-4.54a2.678,2.678,0,0,0-2.68,2.67,2.68,2.68,0,0,0,2.68,2.68h4.54a2.687,2.687,0,0,0,2.68-2.68A2.684,2.684,0,0,0-146.76,75.21Zm0,0h-4.54a2.678,2.678,0,0,0-2.68,2.67,2.68,2.68,0,0,0,2.68,2.68h4.54a2.687,2.687,0,0,0,2.68-2.68A2.684,2.684,0,0,0-146.76,75.21Zm0-12.71h-4.54a2.68,2.68,0,0,0-2.68,2.68,2.678,2.678,0,0,0,2.68,2.67h4.54a2.676,2.676,0,0,0,2.67-2.67A2.678,2.678,0,0,0-146.76,62.5Zm18.15,12.71h-4.54a2.691,2.691,0,0,0-2.68,2.67,2.693,2.693,0,0,0,2.68,2.68h4.54a2.68,2.68,0,0,0,2.68-2.68A2.678,2.678,0,0,0-128.61,75.21Zm0-12.71h-4.54a2.68,2.68,0,0,0-2.68,2.68,2.678,2.678,0,0,0,2.68,2.67h4.54a2.676,2.676,0,0,0,2.67-2.67A2.678,2.678,0,0,0-128.61,62.5Zm18.15,12.71H-115a2.676,2.676,0,0,0-2.67,2.67A2.678,2.678,0,0,0-115,80.56h4.54a2.68,2.68,0,0,0,2.68-2.68A2.678,2.678,0,0,0-110.46,75.21Zm0-12.71H-115a2.68,2.68,0,0,0-2.68,2.68A2.678,2.678,0,0,0-115,67.85h4.54a2.671,2.671,0,0,0,1.89-.78,2.606,2.606,0,0,0,.78-1.89A2.678,2.678,0,0,0-110.46,62.5Zm0,0H-115a2.68,2.68,0,0,0-2.68,2.68A2.678,2.678,0,0,0-115,67.85h4.54a2.671,2.671,0,0,0,1.89-.78,2.606,2.606,0,0,0,.78-1.89A2.678,2.678,0,0,0-110.46,62.5Zm0,12.71H-115a2.676,2.676,0,0,0-2.67,2.67A2.678,2.678,0,0,0-115,80.56h4.54a2.68,2.68,0,0,0,2.68-2.68A2.678,2.678,0,0,0-110.46,75.21Zm-18.15,0h-4.54a2.691,2.691,0,0,0-2.68,2.67,2.693,2.693,0,0,0,2.68,2.68h4.54a2.68,2.68,0,0,0,2.68-2.68A2.678,2.678,0,0,0-128.61,75.21Zm0-12.71h-4.54a2.68,2.68,0,0,0-2.68,2.68,2.678,2.678,0,0,0,2.68,2.67h4.54a2.676,2.676,0,0,0,2.67-2.67A2.678,2.678,0,0,0-128.61,62.5Zm-18.15,0h-4.54a2.68,2.68,0,0,0-2.68,2.68,2.678,2.678,0,0,0,2.68,2.67h4.54a2.676,2.676,0,0,0,2.67-2.67A2.678,2.678,0,0,0-146.76,62.5Zm0,12.71h-4.54a2.678,2.678,0,0,0-2.68,2.67,2.68,2.68,0,0,0,2.68,2.68h4.54a2.687,2.687,0,0,0,2.68-2.68A2.684,2.684,0,0,0-146.76,75.21Zm0,0h-4.54a2.678,2.678,0,0,0-2.68,2.67,2.68,2.68,0,0,0,2.68,2.68h4.54a2.687,2.687,0,0,0,2.68-2.68A2.684,2.684,0,0,0-146.76,75.21Zm0-12.71h-4.54a2.68,2.68,0,0,0-2.68,2.68,2.678,2.678,0,0,0,2.68,2.67h4.54a2.676,2.676,0,0,0,2.67-2.67A2.678,2.678,0,0,0-146.76,62.5Zm18.15,0h-4.54a2.68,2.68,0,0,0-2.68,2.68,2.678,2.678,0,0,0,2.68,2.67h4.54a2.676,2.676,0,0,0,2.67-2.67A2.678,2.678,0,0,0-128.61,62.5Zm0,12.71h-4.54a2.691,2.691,0,0,0-2.68,2.67,2.693,2.693,0,0,0,2.68,2.68h4.54a2.68,2.68,0,0,0,2.68-2.68A2.678,2.678,0,0,0-128.61,75.21Zm18.15,0H-115a2.676,2.676,0,0,0-2.67,2.67A2.678,2.678,0,0,0-115,80.56h4.54a2.68,2.68,0,0,0,2.68-2.68A2.678,2.678,0,0,0-110.46,75.21Zm0-12.71H-115a2.68,2.68,0,0,0-2.68,2.68A2.678,2.678,0,0,0-115,67.85h4.54a2.671,2.671,0,0,0,1.89-.78,2.606,2.606,0,0,0,.78-1.89A2.678,2.678,0,0,0-110.46,62.5Zm0,0H-115a2.68,2.68,0,0,0-2.68,2.68A2.678,2.678,0,0,0-115,67.85h4.54a2.671,2.671,0,0,0,1.89-.78,2.606,2.606,0,0,0,.78-1.89A2.678,2.678,0,0,0-110.46,62.5Zm0,12.71H-115a2.676,2.676,0,0,0-2.67,2.67A2.678,2.678,0,0,0-115,80.56h4.54a2.68,2.68,0,0,0,2.68-2.68A2.678,2.678,0,0,0-110.46,75.21Zm-18.15,0h-4.54a2.691,2.691,0,0,0-2.68,2.67,2.693,2.693,0,0,0,2.68,2.68h4.54a2.68,2.68,0,0,0,2.68-2.68A2.678,2.678,0,0,0-128.61,75.21Zm0-12.71h-4.54a2.68,2.68,0,0,0-2.68,2.68,2.678,2.678,0,0,0,2.68,2.67h4.54a2.676,2.676,0,0,0,2.67-2.67A2.678,2.678,0,0,0-128.61,62.5Zm-18.15,0h-4.54a2.68,2.68,0,0,0-2.68,2.68,2.678,2.678,0,0,0,2.68,2.67h4.54a2.676,2.676,0,0,0,2.67-2.67A2.678,2.678,0,0,0-146.76,62.5Zm0,12.71h-4.54a2.678,2.678,0,0,0-2.68,2.67,2.68,2.68,0,0,0,2.68,2.68h4.54a2.687,2.687,0,0,0,2.68-2.68A2.684,2.684,0,0,0-146.76,75.21Z"/></g></g></svg>