<svg xmlns="http://www.w3.org/2000/svg" width="24" height="24" viewBox="0 0 24 24"><defs><style>.a{fill:none;}.b{fill:#2c4c9a;}</style></defs><g transform="translate(-2329 -6161)"><rect class="a" width="24" height="24" transform="translate(2329 6161)"/><path class="b" d="M18.2,0H1.81A1.81,1.81,0,0,0,0,1.81V18.2A1.81,1.81,0,0,0,1.81,20H18.2A1.81,1.81,0,0,0,20,18.2V1.81A1.81,1.81,0,0,0,18.2,0ZM6.2,17.274a.527.527,0,0,1-.527.527H3.422a.527.527,0,0,1-.527-.527v-9.4a.527.527,0,0,1,.527-.527H5.664a.527.527,0,0,1,.527.527ZM4.543,6.464a2.13,2.13,0,1,1,2.13-2.13,2.13,2.13,0,0,1-2.13,2.13ZM17.905,17.316a.484.484,0,0,1-.484.484H15.016a.484.484,0,0,1-.484-.484V12.908c0-.658.193-2.881-1.718-2.881-1.483,0-1.783,1.522-1.844,2.2v5.084a.484.484,0,0,1-.484.484H8.159a.484.484,0,0,1-.484-.484V7.834a.484.484,0,0,1,.484-.484h2.327a.484.484,0,0,1,.484.484v.82a3.3,3.3,0,0,1,3.106-1.462c3.852,0,3.83,3.6,3.83,5.576v4.548Z" transform="translate(2331 6163)"/></g></svg>