<svg xmlns="http://www.w3.org/2000/svg" width="24" height="24" viewBox="0 0 24 24"><defs><style>.a{fill:#fff;}.b{fill:none;}</style></defs><g transform="translate(-1723 -1276)"><g transform="translate(1726 1278.992)"><path class="a" d="M284.708,209.087h-6.836a.54.54,0,1,1,0-1.079h6.836a.54.54,0,0,1,0,1.079Zm0,0" transform="translate(-267.248 -200.668)"/><path class="a" d="M400.543,134.447a.54.54,0,0,1-.381-.922l2.317-2.317-2.317-2.317a.54.54,0,0,1,.764-.763l2.7,2.7a.54.54,0,0,1,0,.763l-2.7,2.7A.536.536,0,0,1,400.543,134.447Zm0,0" transform="translate(-385.782 -123.354)"/><path class="a" d="M5.756,18.008a1.428,1.428,0,0,1-.446-.07L.98,16.435A1.511,1.511,0,0,1,0,15.008V1.508A1.472,1.472,0,0,1,1.439.008a1.429,1.429,0,0,1,.446.07l4.33,1.5A1.51,1.51,0,0,1,7.2,3.008v13.5a1.472,1.472,0,0,1-1.439,1.5ZM1.439,1.133a.369.369,0,0,0-.36.375v13.5a.389.389,0,0,0,.25.361l4.31,1.5a.376.376,0,0,0,.117.016.369.369,0,0,0,.36-.375V3.008a.389.389,0,0,0-.25-.361l-4.31-1.5a.376.376,0,0,0-.117-.016Zm0,0" transform="translate(0 0)"/><path class="a" d="M36.742,5.765a.54.54,0,0,1-.54-.54V1.987a.9.9,0,0,0-.9-.9h-8.1a.54.54,0,1,1,0-1.079h8.1a1.98,1.98,0,0,1,1.979,1.979V5.225A.54.54,0,0,1,36.742,5.765Zm0,0" transform="translate(-25.769)"/><path class="a" d="M184.75,283.1h-2.878a.54.54,0,0,1,0-1.079h2.878a.9.9,0,0,0,.9-.9V277.88a.54.54,0,1,1,1.079,0v3.238A1.98,1.98,0,0,1,184.75,283.1Zm0,0" transform="translate(-174.84 -267.247)"/></g><rect class="b" width="24" height="24" transform="translate(1723 1276)"/></g></svg>