<svg xmlns="http://www.w3.org/2000/svg" width="24" height="24" viewBox="0 0 24 24"><defs><style>.a{fill:#fff;}.b{fill:none;}</style></defs><g transform="translate(-1507 -13)"><g transform="translate(1510 16.992)"><path class="a" d="M89.216,7.776A3.884,3.884,0,1,1,93.1,3.892,3.889,3.889,0,0,1,89.216,7.776Zm0-6.6a2.719,2.719,0,1,0,2.719,2.719,2.722,2.722,0,0,0-2.719-2.719Zm0,0" transform="translate(-82.409)"/><path class="a" d="M13.4,263H.583A.583.583,0,0,1,0,262.417V259.7a3.694,3.694,0,0,1,3.69-3.69h6.6a3.694,3.694,0,0,1,3.69,3.69v2.719A.583.583,0,0,1,13.4,263ZM1.165,261.834H12.818V259.7a2.528,2.528,0,0,0-2.525-2.525H3.69A2.528,2.528,0,0,0,1.165,259.7Zm0,0" transform="translate(0 -246.992)"/><path class="a" d="M305.854,187.841h-6.6a.583.583,0,0,1,0-1.165h6.6a.583.583,0,0,1,0,1.165Zm0,0" transform="translate(-288.437 -180.011)"/><path class="a" d="M395.254,108.686a.583.583,0,0,1-.412-1l2.7-2.7-2.7-2.7a.583.583,0,0,1,.824-.824l3.107,3.107a.583.583,0,0,1,0,.824l-3.107,3.107A.579.579,0,0,1,395.254,108.686Zm0,0" transform="translate(-380.945 -97.738)"/></g><rect class="b" width="24" height="24" transform="translate(1507 13)"/></g></svg>