<svg xmlns="http://www.w3.org/2000/svg" width="24" height="24" viewBox="0 0 24 24"><defs><style>.a{fill:none;}.b{fill:#2c4c9a;}</style></defs><g transform="translate(-262 20)"><rect class="a" width="24" height="24" transform="translate(262 -20)"/><g transform="translate(266 -82.267)"><g transform="translate(0 68.267)"><path class="b" d="M15.429,68.267H.571a.586.586,0,0,0-.571.6v10.8a.586.586,0,0,0,.571.6H15.429a.586.586,0,0,0,.571-.6v-10.8A.586.586,0,0,0,15.429,68.267Zm-.937,1.2L8,74.71,1.509,69.467Zm.366,9.6H1.143V70.686l6.509,5.257a.55.55,0,0,0,.7,0l6.509-5.257Z" transform="translate(0 -68.267)"/></g></g></g></svg>