<svg xmlns="http://www.w3.org/2000/svg" width="150" height="120" viewBox="0 0 150 120"><defs><style>.a{fill:none;}.b{fill:#2c4c9a;}</style></defs><g transform="translate(-1004 -2600)"><rect class="a" width="150" height="120" transform="translate(1004 2600)"/><g transform="translate(1272.502 2622.502)"><g transform="translate(-222.502 -2.502)"><path class="b" d="M-167.286,15.83Q-174.821,8.068-182.316.3a8.838,8.838,0,0,0-6.6-2.8h-9.928q-7.431,0-14.872.01a10.055,10.055,0,0,0-2.29.257A8.5,8.5,0,0,0-222.5,6.2v62.26c.01,5.4,3.617,9.037,8.975,9.037H-173.5c5.377,0,8.984-3.634,8.984-9.037q-.029-22.844.01-45.708A9.454,9.454,0,0,0-167.286,15.83ZM-183.83,6.418V5.2L-171.838,17.6h-9.515a2.194,2.194,0,0,1-2.448-2.133c-.049-2.1-.039-4.178-.039-6.38C-183.83,8.206-183.83,7.327-183.83,6.418ZM-168.9,68.412a4.764,4.764,0,0,1-1.189,3.486,4.787,4.787,0,0,1-3.49,1.185l-39.938-.01c-3.008,0-4.6-1.6-4.6-4.642V6.527c0-2.973,1.612-4.612,4.551-4.612h25.38v9.5c0,1.136,0,2.281.01,3.417a5.289,5.289,0,0,0,0,.79,6.865,6.865,0,0,0,2.32,4.77,6.811,6.811,0,0,0,4.994,1.718c2.2-.02,4.374-.049,6.547-.079l3.775-.049h1.642Z" transform="translate(222.502 2.502)"/></g><g transform="translate(-206.588 30.526)"><path class="b" d="M-180.1,33.181a2.173,2.173,0,0,1-.681,1.58,2.254,2.254,0,0,1-1.6.642l-.188-.01c-7.069.01-14.137.01-21.255,0a2.221,2.221,0,0,1-1.639-.523,2.237,2.237,0,0,1-.79-1.52,1.9,1.9,0,0,1,0-.237,2.195,2.195,0,0,1,.691-1.56,2.208,2.208,0,0,1,1.53-.612h.069c.049,0,.109.01.217.02q5.3-.015,10.6,0l10.573-.01a2.252,2.252,0,0,1,1.649.494,2.239,2.239,0,0,1,.81,1.52A1.6,1.6,0,0,1-180.1,33.181Z" transform="translate(206.254 -30.939)"/></g><g transform="translate(-206.604 48.107)"><path class="b" d="M-180.088,51.011a2.157,2.157,0,0,1-.652,1.55,2.124,2.124,0,0,1-1.56.642h-.1q-3.924.015-7.849.01l-3.011-.01-3.13.01c-2.547,0-5.094.01-7.661-.02a2.044,2.044,0,0,1-1.55-.6,2.189,2.189,0,0,1-.671-1.52,2.151,2.151,0,0,1,.247-1.046,2.367,2.367,0,0,1,2.359-1.274q9.729.03,19.439.02l.573-.01c.425,0,.849-.01,1.293.01a2.314,2.314,0,0,1,1.6.642A2.254,2.254,0,0,1-180.088,51.011Z" transform="translate(206.271 -48.74)"/></g></g></g></svg>