<svg xmlns="http://www.w3.org/2000/svg" width="150" height="120" viewBox="0 0 150 120"><defs><style>.a{fill:none;}.b{fill:#2c4c9a;}</style></defs><g transform="translate(-1004 -2600)"><rect class="a" width="150" height="120" transform="translate(1004 2600)"/><g transform="translate(1032.038 2520.057) rotate(51)"><g transform="translate(109.301)"><g transform="translate(0)"><path class="b" d="M163.383,35.232,149.206,17.149a15.236,15.236,0,0,0-9.739-5.651V2.173a2.155,2.155,0,1,0-4.309,0V11.5a14.954,14.954,0,0,0-9.718,5.651l-14.221,18.1a9.106,9.106,0,0,0-1.918,5.564V95.132A8.866,8.866,0,0,0,118.157,104H156.4a8.865,8.865,0,0,0,8.9-8.824V40.817A9.216,9.216,0,0,0,163.383,35.232Zm-26.072-2.543a6.325,6.325,0,1,1-6.27,6.325A6.29,6.29,0,0,1,137.312,32.689Zm23.7,62.443a4.535,4.535,0,0,1-4.589,4.521H118.2a4.535,4.535,0,0,1-4.589-4.521V40.817a4.586,4.586,0,0,1,.991-2.869l14.2-18.1a10.791,10.791,0,0,1,6.356-3.934V28.559a10.568,10.568,0,1,0,4.309,0V15.91a10.71,10.71,0,0,1,6.335,3.934l14.221,18.083a4.693,4.693,0,0,1,.991,2.891Z" transform="translate(-109.301)"/></g></g><g transform="translate(130.01 60.991)"><path class="b" d="M220.141,299.751a7.316,7.316,0,0,0-6.968-5.111,2.927,2.927,0,1,1,2.927-2.927,2.184,2.184,0,1,0,4.369,0,7.316,7.316,0,0,0-5.111-6.968v-.961a2.184,2.184,0,0,0-4.369,0v.961a7.3,7.3,0,0,0,2.184,14.263,2.927,2.927,0,1,1-2.927,2.927,2.184,2.184,0,0,0-4.369,0,7.316,7.316,0,0,0,5.111,6.968V310a2.184,2.184,0,0,0,4.369,0V308.9A7.309,7.309,0,0,0,220.141,299.751Z" transform="translate(-205.871 -281.6)"/></g></g></g></svg>