<svg xmlns="http://www.w3.org/2000/svg" width="24" height="24" viewBox="0 0 24 24"><defs><style>.a{fill:none;}.b{fill:#fff;}</style></defs><g transform="translate(-1575 -13)"><rect class="a" width="24" height="24" transform="translate(1575 13)"/><g transform="translate(1578 16.992)"><path class="b" d="M89.216,7.776A3.884,3.884,0,1,1,93.1,3.892,3.889,3.889,0,0,1,89.216,7.776Zm0-6.6a2.719,2.719,0,1,0,2.719,2.719,2.722,2.722,0,0,0-2.719-2.719Zm0,0" transform="translate(-82.409)"/><path class="b" d="M13.4,263H.583A.583.583,0,0,1,0,262.417V259.7a3.694,3.694,0,0,1,3.69-3.69h6.6a3.694,3.694,0,0,1,3.69,3.69v2.719A.583.583,0,0,1,13.4,263ZM1.165,261.834H12.818V259.7a2.528,2.528,0,0,0-2.525-2.525H3.69A2.528,2.528,0,0,0,1.165,259.7Zm0,0" transform="translate(0 -246.992)"/><g transform="translate(0 1)"><path class="b" d="M305.854,187.841h-6.6a.583.583,0,0,1,0-1.165h6.6a.583.583,0,0,1,0,1.165Zm0,0" transform="translate(-287.437 -181.011)"/><path class="b" d="M305.854,187.841h-6.6a.583.583,0,0,1,0-1.165h6.6a.583.583,0,0,1,0,1.165Zm0,0" transform="translate(202.374 -296.305) rotate(90)"/></g></g></g></svg>