<svg xmlns="http://www.w3.org/2000/svg" width="150" height="120" viewBox="0 0 150 120"><defs><style>.a{fill:none;}.b{fill:#2c4c9a;}</style></defs><g transform="translate(-1004 -2600)"><rect class="a" width="150" height="120" transform="translate(1004 2600)"/><g transform="translate(1040.511 2609.999)"><path class="b" d="M75.478,23.834,39.7.356a2.159,2.159,0,0,0-2.372,0L1.521,23.834a2.26,2.26,0,0,0-1.032,1.9V46.093a52.293,52.293,0,0,0,21.24,42.215L37.215,99.595a2.2,2.2,0,0,0,2.548,0L55.249,88.307a52.3,52.3,0,0,0,21.24-42.215V25.73a2.216,2.216,0,0,0-1.011-1.9ZM72.117,46.115A47.721,47.721,0,0,1,52.722,84.65L38.51,95.012,24.3,84.65A47.722,47.722,0,0,1,4.9,46.115V26.994L38.51,4.962,72.117,26.994Zm0,0" transform="translate(0 0)"/><path class="b" d="M107.155,182.148a2.264,2.264,0,0,0-3.247,3.156l9.423,9.674a2.307,2.307,0,0,0,3.2.068l18.007-16.985a2.265,2.265,0,0,0-3.111-3.293l-16.372,15.464Zm0,0" transform="translate(-80.726 -134.898)"/></g></g></svg>