<svg xmlns="http://www.w3.org/2000/svg" width="150" height="120" viewBox="0 0 150 120"><defs><style>.a{fill:none;}.b{fill:#2c4c9a;}</style></defs><g transform="translate(-1004 -2600)"><rect class="a" width="150" height="120" transform="translate(1004 2600)"/><g transform="translate(1254.742 2618.74)"><g transform="translate(-219.742 -2.74)"><path class="b" d="M-187.06,2.86a19.1,19.1,0,0,0-13.54-5.6,19.1,19.1,0,0,0-13.54,5.6,19.163,19.163,0,0,0,0,27.08l13.54,13.54,13.54-13.54a19.15,19.15,0,0,0,5.61-13.54A19.025,19.025,0,0,0-187.06,2.86Zm-3.39,23.69L-200.6,36.71l-10.15-10.16a14.217,14.217,0,0,1-4.21-10.15A14.374,14.374,0,0,1-200.6,2.04a14.388,14.388,0,0,1,5.5,1.09,14.308,14.308,0,0,1,4.65,3.12A14.365,14.365,0,0,1-190.45,26.55Z" transform="translate(219.742 2.74)"/></g><g transform="translate(-209.17 7.83)"><path class="b" d="M-200.6,7.83a8.587,8.587,0,0,0-8.57,8.57,8.58,8.58,0,0,0,8.57,8.57,8.6,8.6,0,0,0,8.57-8.57A8.58,8.58,0,0,0-200.6,7.83Zm0,12.35a3.783,3.783,0,0,1-3.78-3.78,3.79,3.79,0,0,1,3.78-3.78,3.8,3.8,0,0,1,2.67,1.11,3.756,3.756,0,0,1,1.11,2.67A3.783,3.783,0,0,1-200.6,20.18Z" transform="translate(209.17 -7.83)"/></g><g transform="translate(-159.452 51.71)"><path class="b" d="M-134.31,57.24a13.816,13.816,0,0,0-9.8-4.05,13.816,13.816,0,0,0-9.8,4.05,13.767,13.767,0,0,0-4.06,9.8,13.773,13.773,0,0,0,4.06,9.81l9.8,9.8,9.8-9.8A13.894,13.894,0,0,0-134.31,57.24Zm-3.38,16.22-6.42,6.41-6.41-6.41a9.018,9.018,0,0,1-2.66-6.41,9.041,9.041,0,0,1,2.66-6.42,9.1,9.1,0,0,1,12.83,0A9.1,9.1,0,0,1-137.69,73.46Z" transform="translate(157.97 -53.19)"/></g><g transform="translate(-203.678 35.91)"><path class="b" d="M-157.05,81.95v4.79h-29.28a16.8,16.8,0,0,1-16.78-16.78,16.8,16.8,0,0,1,16.78-16.78h9.81a.41.41,0,0,0,.11.01,5.515,5.515,0,0,0,5.5-5.4,5.457,5.457,0,0,0-1.54-3.92,5.42,5.42,0,0,0-3.85-1.68,1.614,1.614,0,0,0-.22,0h-10.01v-4.8h10.01a10.311,10.311,0,0,1,10.3,10.3,10.309,10.309,0,0,1-10.3,10.29h-9.81a11.875,11.875,0,0,0-8.47,3.52,11.9,11.9,0,0,0-3.5,8.48,12,12,0,0,0,11.97,11.97Z" transform="translate(203.11 -37.39)"/></g></g></g></svg>