<svg xmlns="http://www.w3.org/2000/svg" width="150" height="120" viewBox="0 0 150 120"><defs><style>.a{fill:none;}.b{fill:#2c4c9a;}</style></defs><g transform="translate(-1004 -2600)"><rect class="a" width="150" height="120" transform="translate(1004 2600)"/><g transform="translate(1033 2613.899)"><path class="b" d="M79,92.1H69.667v-44H22.333v44H13a5.668,5.668,0,0,1-5.667-5.671V51a4.715,4.715,0,0,1-2.582.765H4.743A4.751,4.751,0,0,1,0,47.014V34.183a4.749,4.749,0,0,1,2-3.872L43.255.979a4.752,4.752,0,0,1,5.5,0L90,30.314a4.76,4.76,0,0,1,2,3.869V47.016a4.732,4.732,0,0,1-2.57,4.227,4.822,4.822,0,0,1-2.174.524h-.011A4.722,4.722,0,0,1,84.667,51v35.43A5.676,5.676,0,0,1,79,92.1Zm-5.333-4H79a1.669,1.669,0,0,0,1.667-1.668V43.251l6.148,4.376a1.452,1.452,0,0,0,.437.14.8.8,0,0,0,.357-.085A.743.743,0,0,0,88,47.02V34.183a.752.752,0,0,0-.315-.611L46.44,4.239a.745.745,0,0,0-.867,0L4.318,33.573a.749.749,0,0,0-.318.61V47.016a.749.749,0,0,0,.748.752.946.946,0,0,0,.434-.138l6.151-4.379V86.43A1.67,1.67,0,0,0,13,88.1h5.333v-44H73.667Z"/><path class="b" d="M63,90.851H29V54.608H63Zm-30-4H59V58.608H33Z"/></g></g></svg>