<svg xmlns="http://www.w3.org/2000/svg" width="24" height="24" viewBox="0 0 24 24"><defs><style>.a{fill:#393939;}.b{fill:none;}</style></defs><g transform="translate(-863 -607)"><g transform="translate(866 584.686)"><g transform="translate(0 26.315)"><g transform="translate(0 0)"><path class="a" d="M17.713,39.973l-6.88-12.544a2.065,2.065,0,0,0-3.666,0L.287,39.973a2.306,2.306,0,0,0,0,2.228A2.078,2.078,0,0,0,2.12,43.315H15.88A2.079,2.079,0,0,0,17.713,42.2,2.306,2.306,0,0,0,17.713,39.973ZM16.8,41.646a1.043,1.043,0,0,1-.92.559H2.12a1.043,1.043,0,0,1-.92-.559,1.157,1.157,0,0,1,0-1.118L8.08,27.984a1.036,1.036,0,0,1,1.839,0L16.8,40.528A1.157,1.157,0,0,1,16.8,41.646Z" transform="translate(0 -26.315)"/></g></g><g transform="translate(8.458 31.92)"><rect class="a" width="1.083" height="5.415"/></g><g transform="translate(8.278 38.544)"><g transform="translate(0 0)"><path class="a" d="M236.724,355.99a.722.722,0,1,0,.722.722A.723.723,0,0,0,236.724,355.99Z" transform="translate(-236.002 -355.99)"/></g></g></g><rect class="b" width="24" height="24" transform="translate(863 607)"/></g></svg>