<svg xmlns="http://www.w3.org/2000/svg" width="24" height="24" viewBox="0 0 24 24"><defs><style>.a{fill:#2c4c9a;}.b{fill:none;}</style></defs><g transform="translate(-733 102)"><g transform="translate(662 -100)"><g transform="translate(76)"><g transform="translate(0)"><path class="a" d="M83,0a7.039,7.039,0,0,0-5.955,10.729L82.6,19.723a.583.583,0,0,0,.5.277h0a.583.583,0,0,0,.5-.285l5.415-9.082A7.039,7.039,0,0,0,83,0Zm5.011,10.032-4.923,8.257-5.052-8.177a5.837,5.837,0,1,1,9.975-.079Z" transform="translate(-76 0)"/></g></g><g transform="translate(79.387 3.463)"><g transform="translate(0)"><path class="a" d="M169.613,90a3.613,3.613,0,1,0,3.613,3.613A3.617,3.617,0,0,0,169.613,90Zm0,6.03a2.417,2.417,0,1,1,2.413-2.417A2.419,2.419,0,0,1,169.613,96.03Z" transform="translate(-166 -90)"/></g></g></g><g transform="translate(-756 -111)"><g transform="translate(1226 -21)"><rect class="b" width="24" height="24" transform="translate(263 30)"/></g></g></g></svg>