<svg xmlns="http://www.w3.org/2000/svg" width="24" height="24" viewBox="0 0 24 24"><defs><style>.a{fill:#2c4c9a;}.b{fill:none;}</style></defs><g transform="translate(-958 -556)"><g transform="translate(962.003 558.002)"><path class="a" d="M222.82,154.7a.422.422,0,0,0-.422.422v7.981a.422.422,0,0,0,.845,0v-7.981A.422.422,0,0,0,222.82,154.7Zm0,0" transform="translate(-212.087 -146.202)"/><path class="a" d="M104.82,154.7a.422.422,0,0,0-.422.422v7.981a.422.422,0,0,0,.844,0v-7.981A.422.422,0,0,0,104.82,154.7Zm0,0" transform="translate(-99.56 -146.202)"/><path class="a" d="M1.307,5.953v11.54a2.606,2.606,0,0,0,.677,1.782A2.256,2.256,0,0,0,3.632,20h8.729a2.255,2.255,0,0,0,1.648-.724,2.606,2.606,0,0,0,.677-1.782V5.953a1.792,1.792,0,0,0-.452-3.519H11.872V1.849A1.855,1.855,0,0,0,11.34.536,1.8,1.8,0,0,0,10.045,0h-4.1A1.8,1.8,0,0,0,4.654.536a1.855,1.855,0,0,0-.532,1.313v.585H1.759a1.792,1.792,0,0,0-.452,3.519ZM12.361,19.062H3.632a1.475,1.475,0,0,1-1.4-1.569V5.994H13.764v11.5a1.475,1.475,0,0,1-1.4,1.569ZM5.044,1.849A.909.909,0,0,1,5.306,1.2.882.882,0,0,1,5.948.935h4.1a.882.882,0,0,1,.642.263.908.908,0,0,1,.262.651v.585H5.044ZM1.759,3.371H14.234a.843.843,0,0,1,0,1.686H1.759a.843.843,0,0,1,0-1.686Zm0,0" transform="translate(0 0)"/><path class="a" d="M163.82,154.7a.422.422,0,0,0-.422.422v7.981a.422.422,0,0,0,.844,0v-7.981A.422.422,0,0,0,163.82,154.7Zm0,0" transform="translate(-155.824 -146.202)"/></g><rect class="b" width="24" height="24" transform="translate(958 556)"/></g></svg>