<svg xmlns="http://www.w3.org/2000/svg" width="24" height="24" viewBox="0 0 24 24"><defs><style>.a{fill:none;}.b{fill:#2c4c9a;}</style></defs><g transform="translate(-2241 -6161)"><rect class="a" width="24" height="24" transform="translate(2241 6161)"/><g transform="translate(2242.997 6162.651)"><path class="b" d="M10.006.349A10.04,10.04,0,0,0,8.337,20.282v-7.8H5.923V9.68H8.337V7.612a3.374,3.374,0,0,1,3.6-3.712,19.849,19.849,0,0,1,2.155.11V6.522h-1.48c-1.161,0-1.384.553-1.384,1.365v1.79h2.769l-.361,2.805H11.222v7.865a10.039,10.039,0,0,0-1.217-20Z" transform="translate(0)"/></g></g></svg>