<svg xmlns="http://www.w3.org/2000/svg" width="24" height="24" viewBox="0 0 24 24"><defs><style>.a{fill:#2c4c9a;}.b{fill:none;}</style></defs><g transform="translate(-280 -310)"><g transform="translate(283 313)"><path class="a" d="M9.023,19.482a.374.374,0,0,1-.174-.043L.2,14.925a.376.376,0,0,1-.2-.333V6.126A.376.376,0,0,1,.544,5.79l8.647,4.327a.377.377,0,0,1,.208.336v8.653a.376.376,0,0,1-.181.322A.371.371,0,0,1,9.023,19.482ZM.752,14.363l7.895,4.122v-7.8L.752,6.735Z" transform="translate(0.001 -1.482)"/><path class="a" d="M11.884,19.482a.376.376,0,0,1-.376-.376V10.453a.377.377,0,0,1,.208-.336L20.363,5.79a.377.377,0,0,1,.545.336v8.465a.376.376,0,0,1-.2.333l-8.647,4.515a.374.374,0,0,1-.174.043Zm.376-8.8v7.8l7.895-4.122V6.735Zm8.271,3.906h.008Z" transform="translate(-2.908 -1.482)"/><path class="a" d="M.375,5.079a.376.376,0,0,1-.168-.713L8.837.04a.375.375,0,0,1,.335,0l8.619,4.327a.376.376,0,0,1-.335.673L9.005.8.543,5.039a.372.372,0,0,1-.168.04Z" transform="translate(0.001 0)"/><path class="a" d="M15.031,11.967a.376.376,0,0,1-.376-.376V7.685L6.216,3.463a.377.377,0,0,1,.337-.673L15.2,7.116a.379.379,0,0,1,.208.337v4.138a.376.376,0,0,1-.376.376Z" transform="translate(-1.518 -0.681)"/></g><rect class="b" width="24" height="24" transform="translate(280 310)"/></g></svg>