<svg xmlns="http://www.w3.org/2000/svg" width="150" height="120" viewBox="0 0 150 120"><defs><style>.a{fill:none;}.b{fill:#2c4c9a;}</style></defs><g transform="translate(-1004 -2600)"><rect class="a" width="150" height="120" transform="translate(1004 2600)"/><path class="b" d="M-573.281,97.083l-15.9-24.41a1.773,1.773,0,0,0-1.486-.8h-17.667V61.411a1.755,1.755,0,0,0-1.767-1.744h-67.133A1.756,1.756,0,0,0-679,61.411v55.795a1.755,1.755,0,0,0,1.767,1.744h12.517a10.574,10.574,0,0,0,10.45,8.718,10.574,10.574,0,0,0,10.45-8.718h39.166a10.574,10.574,0,0,0,10.45,8.718,10.574,10.574,0,0,0,10.45-8.718h8.983A1.753,1.753,0,0,0-573,117.205V98.026A1.722,1.722,0,0,0-573.281,97.083Zm-13.852-14.818,7.994,12.273h-22.128v-12.2h14.133Zm-67.134,41.915a7.028,7.028,0,0,1-7.067-6.974,7.028,7.028,0,0,1,7.067-6.974,7.028,7.028,0,0,1,7.067,6.974A7.028,7.028,0,0,1-654.267,124.18Zm0-17.436a10.574,10.574,0,0,0-10.45,8.718h-10.75V63.154h63.6v52.308h-31.95A10.574,10.574,0,0,0-654.267,106.744ZM-594.2,124.18a7.028,7.028,0,0,1-7.067-6.974,7.028,7.028,0,0,1,7.067-6.974,7.028,7.028,0,0,1,7.067,6.974A7.028,7.028,0,0,1-594.2,124.18Zm17.667-8.718h-7.217a10.574,10.574,0,0,0-10.45-8.718,10.574,10.574,0,0,0-10.45,8.718h-3.683v-40.1h16.7l2.271,3.487h-13.673A1.755,1.755,0,0,0-604.8,80.59V96.282a1.754,1.754,0,0,0,1.767,1.744h26.166l.334.513Z" transform="translate(1705 2566.333)"/></g></svg>