<svg xmlns="http://www.w3.org/2000/svg" width="150" height="120" viewBox="0 0 150 120"><defs><style>.a{fill:none;}.b{fill:#2c4c9a;}</style></defs><g transform="translate(-1004 -2600)"><rect class="a" width="150" height="120" transform="translate(1004 2600)"/><g transform="translate(1643.404 2482.57)"><path class="b" d="M-535.751,177.879l-.095-.007v-33.4a2.007,2.007,0,0,0-1.964-2.044h-55.332a2.007,2.007,0,0,0-1.962,2.044V180.52l-.088.014a6.055,6.055,0,0,0-2.786,1.2,6.25,6.25,0,0,0-2.378,4.32,6.371,6.371,0,0,0,1.312,4.789l9.3,11.747c5.97,7.277,12.425,7.84,20.889,7.84h.5c7.5,0,10.93,0,17.572-1.575l6.689-1.667.04.059a5.578,5.578,0,0,0,4.611,2.529h3.262a6.085,6.085,0,0,0,5.776-6.343V184.2A6.154,6.154,0,0,0-535.751,177.879Zm-21.364-31.361h17.343v9.241h-17.343Zm-13.032,0h9.108v9.241h-9.108Zm0,13.328h9.106v5.949h-9.106Zm-21.032-13.328h17.107v9.241h-17.107Zm45.963,56.747-6.478,1.614c-5.822,1.39-9.409,1.441-15.548,1.441h-1.536c-8.726,0-12.8-.256-17.933-6.329l-9.3-11.749a2.255,2.255,0,0,1,.27-3.092,2.115,2.115,0,0,1,3.077.154l6.822,7.712a9.146,9.146,0,0,0,6.792,3.1h18.9a2.007,2.007,0,0,0,1.962-2.044,2.007,2.007,0,0,0-1.962-2.044H-578.8v-3.365a1.755,1.755,0,0,1,1.717-1.788h9.549c1.7.126,3.988-1.023,5.828-1.945.461-.231.9-.45,1.279-.627a11.907,11.907,0,0,1,10.831.181l4.382,2.318Zm.287-21.035-.036.121-2.86-1.513a15.674,15.674,0,0,0-14.261-.24c-.365.149-.839.393-1.389.676-1.351.693-3.033,1.56-4.066,1.514h-9.545a5.769,5.769,0,0,0-5.641,5.876V190.5l-.2-.217-.033-.037-6.819-7.708a6.275,6.275,0,0,0-1.351-1.151l-.051-.031V159.846h17.107v7.992a2.007,2.007,0,0,0,1.962,2.044h13.032a2.007,2.007,0,0,0,1.962-2.044v-7.992h17.343v18.026l-.095.007A5.887,5.887,0,0,0-544.929,182.229Zm10.6,21.2a2.086,2.086,0,0,1-1.851,2.255h-3.262a2.086,2.086,0,0,1-1.85-2.255V184.2a2.086,2.086,0,0,1,1.85-2.255h3.262a2.086,2.086,0,0,1,1.851,2.255Z" transform="translate(0)"/></g></g></svg>