<svg xmlns="http://www.w3.org/2000/svg" width="150" height="120" viewBox="0 0 150 120"><defs><style>.a{fill:none;}.b{fill:#2c4c9a;}</style></defs><g transform="translate(-1004 -2600)"><rect class="a" width="150" height="120" transform="translate(1004 2600)"/><g transform="translate(1030 2596.774)"><path class="b" d="M98,70.017a48.524,48.524,0,0,0-14.129-34.24,2.43,2.43,0,0,0-.223-.261,2.393,2.393,0,0,0-.262-.222,49.059,49.059,0,0,0-68.773,0,2.466,2.466,0,0,0-.262.222,2.4,2.4,0,0,0-.223.261,48.6,48.6,0,0,0,.22,68.737l0,0,0,0,0,0a2.417,2.417,0,0,0,3.408,0c.04-.04.076-.083.113-.125L25.306,97a2.392,2.392,0,0,0,0-3.394,2.417,2.417,0,0,0-3.408,0l-5.8,5.77A43.525,43.525,0,0,1,4.886,72.417h8.2a2.4,2.4,0,1,0,0-4.8h-8.2A43.721,43.721,0,0,1,16.118,40.669L21.9,46.424a2.4,2.4,0,1,0,3.408-3.394l-5.779-5.755A44.1,44.1,0,0,1,46.59,26.091v8.16a2.41,2.41,0,0,0,4.82,0v-8.16A44.1,44.1,0,0,1,78.474,37.276L72.694,43.03A2.4,2.4,0,0,0,76.1,46.424l5.779-5.755A43.72,43.72,0,0,1,93.114,67.618h-8.2a2.4,2.4,0,1,0,0,4.8h8.2A43.525,43.525,0,0,1,81.9,99.381L76.1,93.61a2.417,2.417,0,0,0-3.408,0,2.392,2.392,0,0,0,0,3.394l7.546,7.514a2.416,2.416,0,0,0,3.408,0A48.368,48.368,0,0,0,98,70.017Z" transform="translate(0 0)"/><path class="b" d="M144.873,87.353A2.438,2.438,0,0,0,141.7,88.71L134.655,106.3a9.271,9.271,0,0,0-.986-.059,9.042,9.042,0,0,0-8.092,4.962,9.693,9.693,0,0,0,1.116,10.225,3.969,3.969,0,0,0,.867.867,10.406,10.406,0,0,0,6.109,2.1,9.042,9.042,0,0,0,8.092-4.962,9.691,9.691,0,0,0-1.114-10.222,3.97,3.97,0,0,0-.868-.869c-.178-.129-.36-.247-.541-.365l6.993-17.455A2.438,2.438,0,0,0,144.873,87.353Zm-7.458,29.868a4.187,4.187,0,0,1-3.746,2.3,5.431,5.431,0,0,1-3.118-1.082,4.815,4.815,0,0,1-.628-5.02,4.186,4.186,0,0,1,3.746-2.3,4.746,4.746,0,0,1,1.521.258l.049.022c.053.021.107.038.161.056a6.476,6.476,0,0,1,1.387.745A4.817,4.817,0,0,1,137.415,117.221Z" transform="translate(-84.697 -45.117)"/></g></g></svg>