<svg xmlns="http://www.w3.org/2000/svg" width="24" height="24" viewBox="0 0 24 24"><defs><style>.a{fill:none;}.b{fill:#2c4c9a;}</style></defs><g transform="translate(-1525 -354)"><rect class="a" width="24" height="24" transform="translate(1525 354)"/><g transform="translate(1827.74 310.35)"><g transform="translate(-301.74 49.65)"><g transform="translate(0 0)"><path class="b" d="M-279.783,55.94h0l-.012-.028-.008-.018a11.481,11.481,0,0,0-4.395-4.506,12.994,12.994,0,0,0-6.541-1.737,12.994,12.994,0,0,0-6.541,1.737,11.479,11.479,0,0,0-4.385,4.489.541.541,0,0,0-.011.526,11.467,11.467,0,0,0,4.4,4.51,12.991,12.991,0,0,0,6.541,1.738,12.991,12.991,0,0,0,6.541-1.738,11.472,11.472,0,0,0,4.4-4.509A.539.539,0,0,0-279.783,55.94Zm-1.348.264a11.166,11.166,0,0,1-9.608,5.278,11.166,11.166,0,0,1-9.608-5.278l-.031-.054.031-.054a11.164,11.164,0,0,1,9.608-5.278,11.164,11.164,0,0,1,9.608,5.278l.031.054Z" transform="translate(301.74 -49.65)"/></g></g><g transform="translate(-294.081 52.809)"><g transform="translate(0 0)"><path class="b" d="M-223.619,87.04a3.344,3.344,0,0,0-3.341,3.341,3.344,3.344,0,0,0,3.341,3.341,3.344,3.344,0,0,0,3.341-3.341A3.344,3.344,0,0,0-223.619,87.04Zm0,5.28a1.942,1.942,0,0,1-1.939-1.939,1.942,1.942,0,0,1,1.939-1.939,1.942,1.942,0,0,1,1.939,1.939A1.942,1.942,0,0,1-223.619,92.32Z" transform="translate(226.96 -87.04)"/></g></g></g></g></svg>