<svg xmlns="http://www.w3.org/2000/svg" width="24" height="24" viewBox="0 0 24 24"><defs><style>.a{fill:none;}.b{fill:#2c4c9a;}</style></defs><g transform="translate(-1489 -9)"><g transform="translate(1226 -21)"><rect class="a" width="24" height="24" transform="translate(263 30)"/></g><g transform="translate(1493 13)"><path class="b" d="M8,16a8,8,0,1,1,8-8A8.009,8.009,0,0,1,8,16ZM8,1a7,7,0,1,0,7,7A7.008,7.008,0,0,0,8,1ZM8,1"/><path class="b" d="M244.084,110.355a.516.516,0,0,1-.361-.144l-3.574-3.445a.483.483,0,0,1-.15-.348v-4.594a.511.511,0,0,1,1.021,0v4.389l3.424,3.3a.48.48,0,0,1,0,.7.516.516,0,0,1-.361.144Zm0,0" transform="translate(-232.562 -98.099)"/></g></g></svg>