<svg xmlns="http://www.w3.org/2000/svg" width="114" height="52" viewBox="0 0 114 52"><defs><style>.a{fill:#0a378c;}.b{fill:#ed3237;}</style></defs><g transform="translate(-9352.73 -7807.26)"><g transform="translate(9352.73 7807.26)"><path class="a" d="M16470.883,7845.1a4.647,4.647,0,0,1-4.125-2.2l-4.949-7.4,5.816-8.393,12.877,17.99Zm-27.869,0h-2.574l13.744-19.1-13.125-18.692h2.574l13.125,18.692Zm19.088-28.782,4.863-7.364a3.518,3.518,0,0,1,3.094-1.649h9.621l-12.07,16.656Z" transform="translate(-16367.757 -7807.299)"/><path class="a" d="M9356.01,12031.518a5.645,5.645,0,0,1-1.885-.316,3.453,3.453,0,0,1-1.395-.832l.365-.719a3.5,3.5,0,0,0,1.274.775,4.665,4.665,0,0,0,1.64.3,3,3,0,0,0,1.779-.436,1.341,1.341,0,0,0,.592-1.129,1.13,1.13,0,0,0-.321-.846,2.182,2.182,0,0,0-.788-.484,12.547,12.547,0,0,0-1.3-.373,13.6,13.6,0,0,1-1.59-.485,2.612,2.612,0,0,1-1.016-.712,1.9,1.9,0,0,1-.422-1.3,2.2,2.2,0,0,1,.354-1.218,2.411,2.411,0,0,1,1.084-.876,4.439,4.439,0,0,1,1.816-.328,5.355,5.355,0,0,1,1.482.208,4.249,4.249,0,0,1,1.254.574l-.314.744a4.344,4.344,0,0,0-1.186-.549,4.417,4.417,0,0,0-1.236-.184,2.853,2.853,0,0,0-1.747.449,1.386,1.386,0,0,0-.587,1.153,1.149,1.149,0,0,0,.322.852,2.114,2.114,0,0,0,.807.491q.486.171,1.307.373a13.2,13.2,0,0,1,1.57.473,2.569,2.569,0,0,1,1.015.707,1.868,1.868,0,0,1,.417,1.279,2.176,2.176,0,0,1-.36,1.217,2.409,2.409,0,0,1-1.1.871A4.6,4.6,0,0,1,9356.01,12031.518Zm12.7-8.906v8.83h-.921v-4.074h-5.524v4.074h-.934v-8.83h.934v3.936h5.524v-3.936Zm2.876,0h.933v8.83h-.933Zm7.113,0a3.986,3.986,0,0,1,2.648.808,3.042,3.042,0,0,1,0,4.434,4.006,4.006,0,0,1-2.648.8h-2.371v2.787h-.934v-8.83Zm-.025,5.223a3.073,3.073,0,0,0,2.006-.574,1.985,1.985,0,0,0,.693-1.621,2.011,2.011,0,0,0-.693-1.646,3.073,3.073,0,0,0-2.006-.574h-2.346v4.415Zm8.956-5.223a3.986,3.986,0,0,1,2.648.808,3.044,3.044,0,0,1,0,4.434,4.006,4.006,0,0,1-2.648.8h-2.371v2.787h-.934v-8.83Zm-.024,5.223a3.067,3.067,0,0,0,2-.574,1.986,1.986,0,0,0,.7-1.621,2.013,2.013,0,0,0-.7-1.646,3.067,3.067,0,0,0-2-.574h-2.347v4.415Zm5.65-5.223h.934v8.83h-.934Zm11.188,0v8.83h-.77l-5.676-7.164v7.164h-.934v-8.83h.77l5.688,7.165v-7.165Zm9.094,4.416h.9v3.367a4.324,4.324,0,0,1-1.463.832,5.447,5.447,0,0,1-1.779.291,4.88,4.88,0,0,1-2.384-.58,4.29,4.29,0,0,1-1.665-1.609,4.678,4.678,0,0,1,0-4.6,4.287,4.287,0,0,1,1.665-1.608,4.917,4.917,0,0,1,2.4-.58,5.165,5.165,0,0,1,1.854.321,3.7,3.7,0,0,1,1.426.953l-.581.593a3.629,3.629,0,0,0-2.661-1.034,3.961,3.961,0,0,0-1.936.473,3.469,3.469,0,0,0-1.356,1.312,3.8,3.8,0,0,0,0,3.74,3.537,3.537,0,0,0,1.349,1.312,3.894,3.894,0,0,0,1.931.479,3.848,3.848,0,0,0,2.308-.681Zm13.056,0h.9v3.367a4.324,4.324,0,0,1-1.463.832,5.447,5.447,0,0,1-1.779.291,4.874,4.874,0,0,1-2.383-.58,4.286,4.286,0,0,1-1.666-1.609,4.678,4.678,0,0,1,0-4.6,4.283,4.283,0,0,1,1.666-1.608,4.914,4.914,0,0,1,2.4-.58,5.163,5.163,0,0,1,1.854.321,3.687,3.687,0,0,1,1.426.953l-.58.593a3.633,3.633,0,0,0-2.662-1.034,3.961,3.961,0,0,0-1.936.473,3.476,3.476,0,0,0-1.356,1.312,3.8,3.8,0,0,0,0,3.74,3.542,3.542,0,0,0,1.351,1.312,4.193,4.193,0,0,0,4.237-.2Zm9.561,4.414-2.018-2.838a6.369,6.369,0,0,1-.706.037h-2.371v2.8h-.934v-8.83h3.3a3.99,3.99,0,0,1,2.648.808,2.748,2.748,0,0,1,.959,2.22,2.736,2.736,0,0,1-2.019,2.775l2.157,3.027Zm-2.749-3.595a3.047,3.047,0,0,0,2-.581,2.275,2.275,0,0,0,0-3.272,3.068,3.068,0,0,0-2-.574h-2.346v4.428Zm9.7,3.671a4.837,4.837,0,0,1-2.377-.587,4.292,4.292,0,0,1-1.666-1.608,4.7,4.7,0,0,1,0-4.592,4.289,4.289,0,0,1,1.666-1.607,5.109,5.109,0,0,1,4.742-.007,4.289,4.289,0,0,1,1.658,1.608,4.678,4.678,0,0,1,0,4.6,4.291,4.291,0,0,1-1.658,1.609A4.819,4.819,0,0,1,9443.105,12031.518Zm0-.833a3.8,3.8,0,0,0,1.893-.474,3.429,3.429,0,0,0,1.324-1.311,3.907,3.907,0,0,0,0-3.747,3.432,3.432,0,0,0-1.324-1.312,4.037,4.037,0,0,0-3.791,0,3.451,3.451,0,0,0-1.337,1.312,3.859,3.859,0,0,0,0,3.747,3.449,3.449,0,0,0,1.337,1.311A3.835,3.835,0,0,0,9443.105,12030.685Zm10.28.833a3.563,3.563,0,0,1-2.675-.984,3.943,3.943,0,0,1-.958-2.863v-5.059h.933v5.021a3.3,3.3,0,0,0,.694,2.295,3.052,3.052,0,0,0,4.023,0,3.3,3.3,0,0,0,.694-2.295v-5.021h.908v5.059a3.954,3.954,0,0,1-.953,2.863A3.537,3.537,0,0,1,9453.386,12031.518Zm9.737-8.906a3.986,3.986,0,0,1,2.648.808,3.042,3.042,0,0,1,0,4.434,4.006,4.006,0,0,1-2.648.8h-2.371v2.787h-.934v-8.83Zm-.025,5.223a3.073,3.073,0,0,0,2.006-.574,1.985,1.985,0,0,0,.693-1.621,2.011,2.011,0,0,0-.693-1.646,3.073,3.073,0,0,0-2.006-.574h-2.346v4.415Z" transform="translate(-9352.73 -11979.518)"/><path class="b" d="M16454.121,7842.842h0l-.447.682a3.321,3.321,0,0,1-2.955,1.58h-10.309l13.744-19.1-13.125-18.692h9.826a4.015,4.015,0,0,1,3.438,1.787l11.836,16.424Z" transform="translate(-16367.728 -7807.309)"/><path class="a" d="M13256.5,7836.81v8.246h-25.5a4.75,4.75,0,0,1-3.437-1.409,4.659,4.659,0,0,1-1.442-3.47V7807.26h29.687v8.246h-19.1v6.392h16.836v7.971h-16.836v6.941Z" transform="translate(-13186.409 -7807.26)"/><path class="a" d="M9370.56,7845.832a21.016,21.016,0,0,1-9.621-2.027,13.775,13.775,0,0,1-6.081-6.013,20.267,20.267,0,0,1-2.1-9.553V7807.28h6.94a3.682,3.682,0,0,1,2.646,1.1,3.592,3.592,0,0,1,1.134,2.68V7827.9q0,9.072,7.147,9.071t7.146-9.071V7807.28h6.734a3.755,3.755,0,0,1,3.779,3.78v17.18q0,8.384-4.672,12.988T9370.56,7845.832Z" transform="translate(-9352.761 -7807.28)"/><path class="b" d="M16454.121,7842.842h0l-.447.682a3.321,3.321,0,0,1-2.955,1.58h-10.309l13.744-19.1-13.125-18.692h9.826a4.015,4.015,0,0,1,3.438,1.787l11.836,16.424Z" transform="translate(-16367.728 -7807.309)"/></g></g></svg>